<?xml version="1.0" encoding="UTF-8"?>
<svg version="1.1" xmlns="http://www.w3.org/2000/svg" width="256" height="256">
<path d="M0 0 C84.48 0 168.96 0 256 0 C256 84.48 256 168.96 256 256 C171.52 256 87.04 256 0 256 C0 171.52 0 87.04 0 0 Z " fill="#005FF7" transform="translate(0,0)"/>
<path d="M0 0 C2.4244181 -0.00217047 4.84836806 -0.02032993 7.27270508 -0.03930664 C28.43725887 -0.1146498 53.29950913 1.34548846 70.3918457 15.18530273 C71.06602539 15.7125293 71.74020508 16.23975586 72.43481445 16.78295898 C84.84293761 27.70306737 89.20008587 45.33768207 90.3918457 61.18530273 C91.25063448 85.27499132 91.91305995 112.74730032 75.58325195 132.35717773 C61.90346885 147.00032584 41.61599195 150.92620632 22.3918457 152.18530273 C18.63391272 152.26556886 14.88404393 152.21108419 11.1262207 152.14233398 C8.99732381 152.11994207 6.86841688 152.09848707 4.73950195 152.07788086 C1.44413189 152.04093944 -1.85070669 151.99793713 -5.14575195 151.93847656 C-17.97102276 151.71874089 -29.43515819 151.83100945 -41.6081543 156.18530273 C-42.52999512 156.50265381 -43.45183594 156.82000488 -44.40161133 157.14697266 C-45.15039551 157.40712158 -45.89917969 157.66727051 -46.6706543 157.93530273 C-50.09817436 159.11008362 -52.95415644 159.70730243 -56.6081543 159.18530273 C-58.2578125 157.95678711 -58.2578125 157.95678711 -59.6081543 156.18530273 C-59.91357422 153.99975586 -59.91357422 153.99975586 -59.83862305 151.46655273 C-59.82931763 150.07605713 -59.82931763 150.07605713 -59.81982422 148.6574707 C-59.81184814 147.67665527 -59.80387207 146.69583984 -59.7956543 145.68530273 C-59.94042996 137.24753256 -60.70598877 132.09226634 -66.4831543 125.60327148 C-82.15002145 107.77645021 -82.68214416 81.14887894 -81.48364258 58.87084961 C-80.45352533 45.08768334 -76.60440737 31.87072569 -67.6081543 21.18530273 C-66.78444336 20.1430957 -66.78444336 20.1430957 -65.9440918 19.07983398 C-54.27732364 5.79410902 -35.20353002 2.10417889 -18.41894531 0.36621094 C-12.28775353 -0.02840498 -6.14160688 -0.000613 0 0 Z " fill="#025FF5" transform="translate(123.608154296875,51.814697265625)"/>
<path d="M0 0 C2.4244181 -0.00217047 4.84836806 -0.02032993 7.27270508 -0.03930664 C28.43725887 -0.1146498 53.29950913 1.34548846 70.3918457 15.18530273 C71.06602539 15.7125293 71.74020508 16.23975586 72.43481445 16.78295898 C84.84293761 27.70306737 89.20008587 45.33768207 90.3918457 61.18530273 C91.25063448 85.27499132 91.91305995 112.74730032 75.58325195 132.35717773 C61.90346885 147.00032584 41.61599195 150.92620632 22.3918457 152.18530273 C18.63391272 152.26556886 14.88404393 152.21108419 11.1262207 152.14233398 C8.99732381 152.11994207 6.86841688 152.09848707 4.73950195 152.07788086 C1.44413189 152.04093944 -1.85070669 151.99793713 -5.14575195 151.93847656 C-17.97102276 151.71874089 -29.43515819 151.83100945 -41.6081543 156.18530273 C-42.52999512 156.50265381 -43.45183594 156.82000488 -44.40161133 157.14697266 C-45.15039551 157.40712158 -45.89917969 157.66727051 -46.6706543 157.93530273 C-50.09817436 159.11008362 -52.95415644 159.70730243 -56.6081543 159.18530273 C-58.2578125 157.95678711 -58.2578125 157.95678711 -59.6081543 156.18530273 C-59.91357422 153.99975586 -59.91357422 153.99975586 -59.83862305 151.46655273 C-59.82931763 150.07605713 -59.82931763 150.07605713 -59.81982422 148.6574707 C-59.81184814 147.67665527 -59.80387207 146.69583984 -59.7956543 145.68530273 C-59.94042996 137.24753256 -60.70598877 132.09226634 -66.4831543 125.60327148 C-82.15002145 107.77645021 -82.68214416 81.14887894 -81.48364258 58.87084961 C-80.45352533 45.08768334 -76.60440737 31.87072569 -67.6081543 21.18530273 C-66.78444336 20.1430957 -66.78444336 20.1430957 -65.9440918 19.07983398 C-54.27732364 5.79410902 -35.20353002 2.10417889 -18.41894531 0.36621094 C-12.28775353 -0.02840498 -6.14160688 -0.000613 0 0 Z M-57.6081543 27.18530273 C-71.09854258 44.57525638 -71.53072655 68.30002905 -69.21362305 89.43139648 C-66.91066134 103.47203401 -59.67016133 115.29607528 -51.39331055 126.61108398 C-48.59621161 130.64453738 -48.3787341 134.06693697 -48.0456543 138.87280273 C-47.9199707 140.64204102 -47.9199707 140.64204102 -47.79174805 142.44702148 C-47.73116211 143.3506543 -47.67057617 144.25428711 -47.6081543 145.18530273 C-46.49956055 144.9081543 -45.3909668 144.63100586 -44.2487793 144.34545898 C-40.03523763 143.29207357 -35.82169596 142.23868815 -31.6081543 141.18530273 C-31.00911285 141.01142029 -30.41007141 140.83753784 -29.7928772 140.65838623 C-27.3620336 140.13200735 -25.21622677 140.09339285 -22.72973633 140.13525391 C-21.75996857 140.1482402 -20.79020081 140.1612265 -19.79104614 140.17460632 C-18.74326996 140.19231583 -17.69549377 140.21002533 -16.6159668 140.22827148 C-14.35946566 140.25070902 -12.10295452 140.27215886 -9.84643555 140.29272461 C-6.31897252 140.32937295 -2.79203438 140.37179556 0.73510742 140.43212891 C35.12864833 141.14306424 35.12864833 141.14306424 64.7824707 125.86499023 C77.58418839 112.5039742 78.770997 94.22433223 78.8293457 76.62280273 C78.83542847 75.93114014 78.84151123 75.23947754 78.84777832 74.52685547 C78.94312695 57.92046681 77.4853121 38.73973085 65.3918457 26.18530273 C48.18207997 11.44900536 23.68288456 11.95113806 2.3293457 11.93530273 C1.50958252 11.93462799 0.68981934 11.93395325 -0.15478516 11.93325806 C-19.73745289 11.9588535 -43.00710767 12.01390273 -57.6081543 27.18530273 Z " fill="#F7FAFA" transform="translate(123.608154296875,51.814697265625)"/>
<path d="M0 0 C2 0.75 2 0.75 4 3.75 C4.13183594 5.76782227 4.13183594 5.76782227 3.984375 8.06640625 C3.19946061 20.37749615 3.19946061 20.37749615 8.40234375 31.1796875 C11.81782549 36.67452121 12.6526313 43.48991771 14 49.75 C14.19335938 50.49765625 14.38671875 51.2453125 14.5859375 52.015625 C15.65090022 56.47641225 15.49071982 59.80630804 13.375 63.875 C7.12152027 71.44500178 0.53702097 74.14570278 -9 75.75 C-11.53388828 75.86566265 -14.04004772 75.93743757 -16.57421875 75.953125 C-17.2980928 75.95882507 -18.02196686 75.96452515 -18.76777649 75.97039795 C-20.29658564 75.97981404 -21.82541478 75.9863684 -23.35424805 75.99023438 C-25.66297021 75.99989733 -27.97078481 76.03093398 -30.27929688 76.0625 C-41.814126 76.14511543 -51.85139806 75.35504465 -60.6953125 67.18359375 C-64.89752002 62.81525245 -64.89752002 62.81525245 -65.296875 58.6640625 C-64.92678684 53.78474222 -64.00516284 49.19197817 -62.875 44.4375 C-62.65489258 43.49326172 -62.43478516 42.54902344 -62.20800781 41.57617188 C-60.99642535 36.70618491 -59.81151661 32.80983724 -56.75 28.75 C-51.93826294 22.07248735 -53.1573719 12.63429759 -53.22363281 4.74609375 C-53 2.75 -53 2.75 -51 0.75 C-45.70785052 0.75 -41.85566685 4.50736805 -38 7.75 C-37.56276611 8.2668335 -37.12553223 8.78366699 -36.67504883 9.31616211 C-34.49314626 11.18386562 -33.17756996 11.1710965 -30.33203125 11.26171875 C-29.43935547 11.29716797 -28.54667969 11.33261719 -27.62695312 11.36914062 C-26.69818359 11.39169922 -25.76941406 11.41425781 -24.8125 11.4375 C-23.40194336 11.48874023 -23.40194336 11.48874023 -21.96289062 11.54101562 C-19.64204607 11.62348218 -17.32157852 11.69263403 -15 11.75 C-14.71318359 11.12891357 -14.42636719 10.50782715 -14.13085938 9.86791992 C-12.69063222 7.17060331 -10.93866438 5.88753942 -8.5 4.0625 C-7.7059375 3.46050781 -6.911875 2.85851562 -6.09375 2.23828125 C-2.50446429 -0.31305804 -2.50446429 -0.31305804 0 0 Z " fill="#F9FBFC" transform="translate(153,90.25)"/>
<path d="M0 0 C1.32 0 2.64 0 4 0 C4 84.48 4 168.96 4 256 C-80.48 256 -164.96 256 -252 256 C-252 251.38 -252 246.76 -252 242 C-251.67 242 -251.34 242 -251 242 C-251 246.29 -251 250.58 -251 255 C-235.39618071 254.91552082 -219.79246921 254.8207354 -204.1887989 254.71247292 C-196.94294447 254.66245564 -189.69710073 254.61601196 -182.45117188 254.578125 C-176.13201185 254.54507464 -169.8129376 254.50517249 -163.49387252 254.45720994 C-160.15123716 254.43207374 -156.80871503 254.41127787 -153.46600723 254.39665604 C-149.72477273 254.37970862 -145.9838095 254.35065256 -142.24267578 254.31884766 C-141.14718918 254.31668747 -140.05170258 254.31452728 -138.92301941 254.31230164 C-133.11694103 254.24948682 -127.74456614 253.75636243 -122.08310699 252.4394989 C-119.26794219 251.84554869 -116.6384022 251.86602186 -113.7734375 252.0234375 C-112.72285156 252.075 -111.67226562 252.1265625 -110.58984375 252.1796875 C-109.52894531 252.24414062 -108.46804687 252.30859375 -107.375 252.375 C-106.27542969 252.43171875 -105.17585937 252.4884375 -104.04296875 252.546875 C-101.3611713 252.68679487 -98.68054036 252.83802801 -96 253 C-96 253.66 -96 254.32 -96 255 C-95.21254395 254.51321777 -95.21254395 254.51321777 -94.40917969 254.01660156 C-91.30360582 252.70614255 -88.82295544 252.74088945 -85.453125 252.734375 C-84.1434375 252.73050781 -82.83375 252.72664062 -81.484375 252.72265625 C-80.07291118 252.73087773 -78.66145241 252.74001027 -77.25 252.75 C-76.54101562 252.75177246 -75.83203125 252.75354492 -75.1015625 252.75537109 C-62.0018533 252.79379533 -49.02672659 253.58927154 -36 255 C-36 254.34 -36 253.68 -36 253 C-35.10796875 253.16371094 -34.2159375 253.32742187 -33.296875 253.49609375 C-27.64245483 254.30325796 -21.94829985 254.1051225 -16.25 254.0625 C-14.54650391 254.05573242 -14.54650391 254.05573242 -12.80859375 254.04882812 C-10.71385643 254.04013111 -8.61912589 254.02937569 -6.52441406 254.01586914 C-4.68297149 254.00429334 -2.84147895 254 -1 254 C0.31258646 252.91313049 0.31258646 252.91313049 0.11352539 250.26696777 C0.10828857 249.046427 0.10305176 247.82588623 0.09765625 246.56835938 C0.09619598 245.89682327 0.09473572 245.22528717 0.0932312 244.53340149 C0.089417 243.07103241 0.0832919 241.608668 0.07516479 240.14631653 C0.06245524 237.83561277 0.05589962 235.52496607 0.05102539 233.2142334 C0.03956863 228.30946342 0.02032533 223.40474019 0 218.5 C-0.02354284 212.81883584 -0.04395487 207.13769852 -0.05593872 201.45649719 C-0.06245063 199.17355803 -0.07495907 196.89070011 -0.08764648 194.60778809 C-0.09127727 193.21573967 -0.09462922 191.82369049 -0.09765625 190.43164062 C-0.10289307 189.21109985 -0.10812988 187.99055908 -0.11352539 186.73303223 C0 184 0 184 1 183 C1.36478116 175.8653097 1.02162652 168.74147612 0.5 161.625 C0.00401539 154.43322313 -0.11223254 147.27079506 -0.125 140.0625 C-0.13176758 138.45205811 -0.13176758 138.45205811 -0.13867188 136.80908203 C-0.13673828 135.81118652 -0.13480469 134.81329102 -0.1328125 133.78515625 C-0.13168457 132.88676025 -0.13055664 131.98836426 -0.12939453 131.06274414 C0 129 0 129 1 128 C1.07615251 125.50238809 1.09079732 123.03220609 1.0625 120.53515625 C1.05871338 119.78664902 1.05492676 119.03814178 1.05102539 118.26695251 C1.03461139 115.05200672 1.00651062 111.83718581 0.97949219 108.62231445 C0.96146021 106.28076764 0.94933072 103.93924126 0.9375 101.59765625 C0.92505249 100.50228294 0.92505249 100.50228294 0.91235352 99.38478088 C0.88719302 94.22561396 0.88719302 94.22561396 2 92 C2.08559118 89.82175039 2.10713412 87.64084745 2.09765625 85.4609375 C2.09443359 84.15898438 2.09121094 82.85703125 2.08789062 81.515625 C2.07953466 80.13541601 2.07106971 78.75520768 2.0625 77.375 C2.05748501 75.98698074 2.0529221 74.59895978 2.04882812 73.2109375 C2.03700976 69.80724868 2.02053434 66.40364561 2 63 C1.67 63 1.34 63 1 63 C0.97526645 57.51904631 0.95712404 52.03812517 0.94506836 46.55712891 C0.94004208 44.69286534 0.93322008 42.8286057 0.92456055 40.96435547 C0.91242037 38.28351876 0.90675461 35.6027342 0.90234375 32.921875 C0.89718246 32.08944275 0.89202118 31.2570105 0.88670349 30.39935303 C0.88662796 29.61884583 0.88655243 28.83833862 0.88647461 28.03417969 C0.884254 27.35023132 0.88203339 26.66628296 0.87974548 25.96160889 C1.00807849 23.86822256 1.45608758 22.02139017 2 20 C2.14033578 18.560265 2.24416857 17.11662851 2.31640625 15.671875 C2.35830078 14.87265625 2.40019531 14.0734375 2.44335938 13.25 C2.48267578 12.425 2.52199219 11.6 2.5625 10.75 C2.62727539 9.48929688 2.62727539 9.48929688 2.69335938 8.203125 C2.79908543 6.13559329 2.90001295 4.06781719 3 2 C2.01 1.67 1.02 1.34 0 1 C0 0.67 0 0.34 0 0 Z " fill="#0448EB" transform="translate(252,0)"/>
<path d="M0 0 C56.1 0 112.2 0 170 0 C170 0.66 170 1.32 170 2 C114.56 2 59.12 2 2 2 C1.979375 24.708125 1.95875 47.41625 1.9375 70.8125 C1.928396 77.9897583 1.91929199 85.1670166 1.90991211 92.56176758 C1.90656823 98.98036933 1.90656823 98.98036933 1.90455627 105.39897156 C1.90362245 108.26384756 1.89986631 111.12870513 1.89442444 113.99357605 C1.88758058 117.64471864 1.88550603 121.29583433 1.88692772 124.94698274 C1.88648968 126.92346668 1.88111833 128.89994763 1.87557125 130.87642384 C1.87694875 132.03927749 1.87832624 133.20213114 1.87974548 134.40022278 C1.87882369 135.41511685 1.8779019 136.43001093 1.87695217 137.47565937 C1.89245776 140.12681406 1.89245776 140.12681406 3 143 C2.85985977 143.6971965 2.71971954 144.39439301 2.57533264 145.11271667 C1.77180578 149.14518337 1.82210238 153.09392194 1.79467773 157.1965332 C1.78477814 158.11409897 1.77487854 159.03166473 1.76467896 159.97703552 C1.73316099 163.00159143 1.70834493 166.02616303 1.68359375 169.05078125 C1.66301585 171.15114239 1.64201915 173.25149947 1.62062073 175.35185242 C1.56548648 180.8739187 1.5160391 186.39602183 1.46777344 191.91815186 C1.41749524 197.55549388 1.36184217 203.19278255 1.30664062 208.83007812 C1.19916483 219.88667315 1.09769641 230.94331454 1 242 C0.67 242 0.34 242 0 242 C0 162.14 0 82.28 0 0 Z " fill="#057AF1" transform="translate(0,0)"/>
<path d="M0 0 C0.33 0 0.66 0 1 0 C2.1777808 5.56695009 2.12760748 10.98914563 2.09765625 16.6484375 C2.0962413 17.66096588 2.09482635 18.67349426 2.09336853 19.71670532 C2.08779143 22.93616751 2.07524312 26.15555899 2.0625 29.375 C2.05748204 31.56380108 2.05291965 33.75260325 2.04882812 35.94140625 C2.0378295 41.29429477 2.0211142 46.64714233 2 52 C1.34 52 0.68 52 0 52 C-0.33 56.62 -0.66 61.24 -1 66 C-1.99 66.33 -2.98 66.66 -4 67 C-3.979375 67.928125 -3.95875 68.85625 -3.9375 69.8125 C-4 73 -4 73 -5 76 C-5.99 76 -6.98 76 -8 76 C-8.04125 76.556875 -8.0825 77.11375 -8.125 77.6875 C-9.45151274 81.19328368 -12.09126944 82.73119016 -15 85 C-16.01680311 85.98290968 -17.02738219 86.97334787 -18 88 C-18.495 87.505 -18.495 87.505 -19 87 C-19.185625 87.78375 -19.37125 88.5675 -19.5625 89.375 C-21 92 -21 92 -24.3125 93.125 C-25.529375 93.41375 -26.74625 93.7025 -28 94 C-30.8334743 95.51462733 -30.8334743 95.51462733 -33 97 C-33 96.34 -33 95.68 -33 95 C-35.64 95.33 -38.28 95.66 -41 96 C-38.49146794 93.49146794 -36.29020466 92.96143856 -32.9375 91.8125 C-21.68316037 87.56885705 -12.66834083 79.87447317 -7.3125 69 C-0.30993417 52.38335038 0.15202754 35.60483135 0.0625 17.875 C0.05747515 16.13802212 0.05291398 14.40104284 0.04882812 12.6640625 C0.03790014 8.44267312 0.02068978 4.22135236 0 0 Z " fill="#104DDC" transform="translate(213,104)"/>
<path d="M0 0 C0.495 0.99 0.495 0.99 1 2 C1.99 1.67 2.98 1.34 4 1 C4.99 1.33 5.98 1.66 7 2 C8.2684375 1.7834375 8.2684375 1.7834375 9.5625 1.5625 C14.06158952 0.82628535 18.45223934 0.91911098 23 1 C23 1.33 23 1.66 23 2 C21.70707031 2.17015625 20.41414063 2.3403125 19.08203125 2.515625 C0.4061777 5.07304891 -17.5486419 8.56322855 -30 24 C-34.38318121 30.560385 -37.11172249 37.36407077 -39 45 C-39.495 43.515 -39.495 43.515 -40 42 C-40.66 42 -41.32 42 -42 42 C-41.25 37.25 -41.25 37.25 -39 35 C-38.45682905 32.44795872 -38.11095659 29.89721422 -37.7578125 27.3125 C-37 25 -37 25 -35.03125 23.8515625 C-34.3609375 23.57054688 -33.690625 23.28953125 -33 23 C-31.97695052 21.34738161 -30.97383946 19.68208635 -30 18 C-29.34 18 -28.68 18 -28 18 C-27.855625 17.278125 -27.71125 16.55625 -27.5625 15.8125 C-25.21103775 11.57986796 -21.39264409 9.8400559 -17 8 C-16.01 8 -15.02 8 -14 8 C-14.33 7.01 -14.66 6.02 -15 5 C-13.98679687 4.80083984 -13.98679687 4.80083984 -12.953125 4.59765625 C-12.06109375 4.42105469 -11.1690625 4.24445312 -10.25 4.0625 C-9.36828125 3.88847656 -8.4865625 3.71445312 -7.578125 3.53515625 C-6.72734375 3.35855469 -5.8765625 3.18195312 -5 3 C-4.25234375 2.85433594 -3.5046875 2.70867188 -2.734375 2.55859375 C-1.87585938 2.28208984 -1.87585938 2.28208984 -1 2 C-0.67 1.34 -0.34 0.68 0 0 Z " fill="#116FE3" transform="translate(85,51)"/>
<path d="M0 0 C0.33 0 0.66 0 1 0 C1.01030746 0.79513504 1.02061493 1.59027008 1.03123474 2.40950012 C1.12917088 9.89915744 1.23167981 17.38873153 1.33933926 24.87825489 C1.39452767 28.72878482 1.44794113 32.57932241 1.49731445 36.42993164 C1.54501824 40.14526156 1.59736321 43.86049964 1.65294075 47.57571983 C1.67333705 48.99388024 1.69205463 50.41206581 1.70907402 51.83027077 C1.73317806 53.81504721 1.7637786 55.79974155 1.79467773 57.78442383 C1.81022202 58.91471512 1.8257663 60.04500641 1.84178162 61.20954895 C1.88252967 64.08428342 1.88252967 64.08428342 3 67 C2.85985977 67.6971965 2.71971954 68.39439301 2.57533264 69.11271667 C1.77180578 73.14518337 1.82210238 77.09392194 1.79467773 81.1965332 C1.78477814 82.11409897 1.77487854 83.03166473 1.76467896 83.97703552 C1.73316099 87.00159143 1.70834493 90.02616303 1.68359375 93.05078125 C1.66301585 95.15114239 1.64201915 97.25149947 1.62062073 99.35185242 C1.56548648 104.8739187 1.5160391 110.39602183 1.46777344 115.91815186 C1.41749524 121.55549388 1.36184217 127.19278255 1.30664062 132.83007812 C1.19916483 143.88667315 1.09769641 154.94331454 1 166 C0.67 166 0.34 166 0 166 C0 111.22 0 56.44 0 0 Z " fill="#036DEE" transform="translate(0,76)"/>
<path d="M0 0 C1.32 0 2.64 0 4 0 C4 31.68 4 63.36 4 96 C3.67 96 3.34 96 3 96 C2.67 85.11 2.34 74.22 2 63 C1.67 63 1.34 63 1 63 C0.97526645 57.51904631 0.95712404 52.03812517 0.94506836 46.55712891 C0.94004208 44.69286534 0.93322008 42.8286057 0.92456055 40.96435547 C0.91242037 38.28351876 0.90675461 35.6027342 0.90234375 32.921875 C0.89718246 32.08944275 0.89202118 31.2570105 0.88670349 30.39935303 C0.88659019 29.22859222 0.88659019 29.22859222 0.88647461 28.03417969 C0.884254 27.35023132 0.88203339 26.66628296 0.87974548 25.96160889 C1.00807849 23.86822256 1.45608758 22.02139017 2 20 C2.14033578 18.560265 2.24416857 17.11662851 2.31640625 15.671875 C2.35830078 14.87265625 2.40019531 14.0734375 2.44335938 13.25 C2.50233398 12.0125 2.50233398 12.0125 2.5625 10.75 C2.60568359 9.90953125 2.64886719 9.0690625 2.69335938 8.203125 C2.79908543 6.13559329 2.90001295 4.06781719 3 2 C2.01 1.67 1.02 1.34 0 1 C0 0.67 0 0.34 0 0 Z " fill="#0757EB" transform="translate(252,0)"/>
<path d="M0 0 C0.33 0 0.66 0 1 0 C2.82272778 9.7617665 3.40048951 19.3442085 3.375 29.25 C3.37512085 29.97445312 3.3752417 30.69890625 3.37536621 31.4453125 C3.34121304 45.83094789 1.91934478 59.08388975 -5 72 C-5.99 72.495 -5.99 72.495 -7 73 C-7.33 72.01 -7.66 71.02 -8 70 C-6.515 69.01 -6.515 69.01 -5 68 C-4.49556904 66.10022098 -4.49556904 66.10022098 -4.4375 64 C-4.2074364 60.2074364 -4.2074364 60.2074364 -2 58 C-2.26075908 56.01171204 -2.52597832 54.02356785 -2.83984375 52.04296875 C-3.05508598 49.29731787 -2.27681153 47.40340994 -1 45 C-0.67 45 -0.34 45 0 45 C0 30.15 0 15.3 0 0 Z " fill="#205BD9" transform="translate(199,99)"/>
<path d="M0 0 C4.35653019 1.39038198 4.35653019 1.39038198 5.9375 3.9375 C6.47818562 7.56781776 6.40129841 9.25964079 4.3125 12.3125 C1.25964079 14.40129841 -0.43218224 14.47818562 -4.0625 13.9375 C-5.9375 12.875 -5.9375 12.875 -7.0625 10.9375 C-7.56599299 6.98148367 -7.63419314 4.8170279 -5.4375 1.4375 C-3.0625 -0.0625 -3.0625 -0.0625 0 0 Z " fill="#0F5EE2" transform="translate(109.0625,126.0625)"/>
<path d="M0 0 C2.64819502 1.04534014 3.84683949 1.52461498 5.375 3.9375 C5.8125 7.4375 5.8125 7.4375 5.375 10.9375 C3.29808202 13.32210953 1.96943084 13.8334746 -1.125 14.375 C-4.52334723 13.78028924 -5.63741034 12.73484842 -7.625 9.9375 C-8.1875 6.9375 -8.1875 6.9375 -7.625 3.9375 C-5.12171555 1.14812589 -3.80877374 -0.09068509 0 0 Z " fill="#0C57E4" transform="translate(147.625,126.0625)"/>
<path d="M0 0 C0.33 0 0.66 0 1 0 C2.1777808 5.56695009 2.12760748 10.98914563 2.09765625 16.6484375 C2.0962413 17.66096588 2.09482635 18.67349426 2.09336853 19.71670532 C2.08779143 22.93616751 2.07524312 26.15555899 2.0625 29.375 C2.05748204 31.56380108 2.05291965 33.75260325 2.04882812 35.94140625 C2.0378295 41.29429477 2.0211142 46.64714233 2 52 C1.34 52 0.68 52 0 52 C-0.33 56.62 -0.66 61.24 -1 66 C-2.485 66.495 -2.485 66.495 -4 67 C-4.33 67.99 -4.66 68.98 -5 70 C-5.66 70 -6.32 70 -7 70 C-6.81824219 69.42894531 -6.63648438 68.85789062 -6.44921875 68.26953125 C-1.1633557 51.21923454 0.15188852 35.5772996 0.0625 17.875 C0.05747515 16.13802212 0.05291398 14.40104284 0.04882812 12.6640625 C0.03790014 8.44267312 0.02068978 4.22135236 0 0 Z " fill="#1048CE" transform="translate(213,104)"/>
<path d="M0 0 C0.89203125 0.16371094 1.7840625 0.32742187 2.703125 0.49609375 C8.35754517 1.30325796 14.05170015 1.1051225 19.75 1.0625 C20.88566406 1.05798828 22.02132812 1.05347656 23.19140625 1.04882812 C25.28614357 1.04013111 27.38087411 1.02937569 29.47558594 1.01586914 C32.8683956 0.99454103 35.72813872 1.09741758 39 2 C39.33 1.34 39.66 0.68 40 0 C40 0.99 40 1.98 40 3 C17.56 3 -4.88 3 -28 3 C-28 2.67 -28 2.34 -28 2 C-24.8339704 1.80054014 -21.66718204 1.61765572 -18.5 1.4375 C-17.613125 1.38142578 -16.72625 1.32535156 -15.8125 1.26757812 C-10.37734765 0.96784546 -5.37905137 1.1516683 0 2 C0 1.34 0 0.68 0 0 Z " fill="#053EE3" transform="translate(216,253)"/>
<path d="M0 0 C1.06347656 0.04833984 2.12695312 0.09667969 3.22265625 0.14648438 C4.31707031 0.20255859 5.41148437 0.25863281 6.5390625 0.31640625 C8.21548828 0.3947168 8.21548828 0.3947168 9.92578125 0.47460938 C12.67219742 0.60371441 15.41819672 0.73865529 18.1640625 0.87890625 C18.1640625 1.53890625 18.1640625 2.19890625 18.1640625 2.87890625 C6.9440625 2.87890625 -4.2759375 2.87890625 -15.8359375 2.87890625 C-10.44498468 0.18342984 -5.96198616 -0.2884832 0 0 Z " fill="#014BF4" transform="translate(137.8359375,252.12109375)"/>
<path d="M0 0 C0.99 0 1.98 0 3 0 C-0.51034174 7.77289957 -7.31797404 11.02182985 -14.9765625 14.03125 C-19.04419401 15.33457379 -22.74173178 15.78708659 -27 16 C-26.01 15.67 -25.02 15.34 -24 15 C-24 14.34 -24 13.68 -24 13 C-23.25234375 12.90203125 -22.5046875 12.8040625 -21.734375 12.703125 C-14.47322133 11.64319412 -14.47322133 11.64319412 -9 7 C-6.75 7.25 -6.75 7.25 -5 8 C-4.67 6.68 -4.34 5.36 -4 4 C-3.34 4.33 -2.68 4.66 -2 5 C-2 4.01 -2 3.02 -2 2 C-1.34 2 -0.68 2 0 2 C0 1.34 0 0.68 0 0 Z " fill="#0C47D5" transform="translate(188,173)"/>
<path d="M0 0 C0.33 0.66 0.66 1.32 1 2 C1.66 2.33 2.32 2.66 3 3 C1 6 1 6 -1.01538086 6.40405273 C-3.65712918 6.43591275 -6.29555106 6.45778014 -8.9375 6.4375 C-9.85724609 6.45748047 -10.77699219 6.47746094 -11.72460938 6.49804688 C-12.60826172 6.49740234 -13.49191406 6.49675781 -14.40234375 6.49609375 C-15.61651978 6.49887329 -15.61651978 6.49887329 -16.85522461 6.50170898 C-19 6 -19 6 -22 2 C-17.71 2.33 -13.42 2.66 -9 3 C-9 3.33 -9 3.66 -9 4 C-6.69 4 -4.38 4 -2 4 C-1.34 2.68 -0.68 1.36 0 0 Z " fill="#075CE1" transform="translate(137,96)"/>
<path d="M0 0 C0.33 0.66 0.66 1.32 1 2 C1.66 2 2.32 2 3 2 C3.33 5.3 3.66 8.6 4 12 C3.34 12 2.68 12 2 12 C1.67 12.66 1.34 13.32 1 14 C-1.46270288 10.30594568 -1.22985417 8.36722928 -1 4 C-0.5 1.5625 -0.5 1.5625 0 0 Z " fill="#EAF4F3" transform="translate(89,141)"/>
<path d="M0 0 C-4.68873057 2.83791587 -8.5729651 3.42736599 -13.92578125 3.69140625 C-14.61027344 3.79324219 -15.29476562 3.89507812 -16 4 C-16.33 4.66 -16.66 5.32 -17 6 C-18.65 5.67 -20.3 5.34 -22 5 C-18.644661 2.76310733 -15.40369426 1.83264459 -11.5625 0.8125 C-10.55993164 0.52729492 -10.55993164 0.52729492 -9.53710938 0.23632812 C-6.06186139 -0.69706355 -3.41391321 -1.37080403 0 0 Z " fill="#1856D1" transform="translate(95,206)"/>
<path d="M0 0 C6 7.71428571 6 7.71428571 6 11 C6.99 11 7.98 11 9 11 C9 11.66 9 12.32 9 13 C9.99 13.66 10.98 14.32 12 15 C12.1875 17.625 12.1875 17.625 12 20 C6.56964148 15.39242307 3.13446275 9.34118977 0 3 C0 2.01 0 1.02 0 0 Z " fill="#1658CF" transform="translate(61,158)"/>
<path d="M0 0 C4.4995862 3.53538915 6.52801139 8.59066764 8 14 C7.67 14.99 7.34 15.98 7 17 C6.01 16.34 5.02 15.68 4 15 C4.33 13.35 4.66 11.7 5 10 C4.01 9.67 3.02 9.34 2 9 C1.26953125 6.93359375 1.26953125 6.93359375 0.8125 4.4375 C0.65394531 3.61121094 0.49539062 2.78492187 0.33203125 1.93359375 C0.16767578 0.97646484 0.16767578 0.97646484 0 0 Z " fill="#2863D3" transform="translate(191,82)"/>
<path d="M0 0 C0.66 0.33 1.32 0.66 2 1 C0.7934375 2.36125 0.7934375 2.36125 -0.4375 3.75 C-2.47723477 6.18396923 -3.37398434 7.86992172 -4 11 C-5.4375 13.25 -5.4375 13.25 -7 15 C-7.66 15 -8.32 15 -9 15 C-7.58399311 8.86397012 -3.9336625 4.73301638 0 0 Z " fill="#1F6AD3" transform="translate(68,77)"/>
<path d="M0 0 C0.99 0 1.98 0 3 0 C3 2.64 3 5.28 3 8 C2.01 8 1.02 8 0 8 C-0.66 9.65 -1.32 11.3 -2 13 C-2.99 13 -3.98 13 -5 13 C-4.360625 12.154375 -3.72125 11.30875 -3.0625 10.4375 C-0.8033727 7.09271435 -0.32208241 4.02603008 0 0 Z " fill="#0E4ED8" transform="translate(168,144)"/>
<path d="M0 0 C1.1171875 1.640625 1.1171875 1.640625 2 4 C1.3203125 6.796875 1.3203125 6.796875 0.125 9.75 C-0.26429687 10.73484375 -0.65359375 11.7196875 -1.0546875 12.734375 C-1.36664063 13.48203125 -1.67859375 14.2296875 -2 15 C-2.33 15 -2.66 15 -3 15 C-3.55353075 4.44191344 -3.55353075 4.44191344 0 0 Z " fill="#0E5FDB" transform="translate(94,116)"/>
<path d="M0 0 C0.33 0 0.66 0 1 0 C3.28571429 8.42857143 3.28571429 8.42857143 3 13 C2.34 13 1.68 13 1 13 C-1.32845886 9.36178302 -1.23553948 6.23971058 -1 2 C-0.67 1.34 -0.34 0.68 0 0 Z " fill="#ECF3F1" transform="translate(209,91)"/>
<path d="M0 0 C4.29 0 8.58 0 13 0 C12.01 1.485 12.01 1.485 11 3 C7.375 3.1875 7.375 3.1875 4 3 C4 2.34 4 1.68 4 1 C2.68 0.67 1.36 0.34 0 0 Z " fill="#014EF9" transform="translate(128,205)"/>
<path d="M0 0 C0.33 0 0.66 0 1 0 C1 5.94 1 11.88 1 18 C0.01 17.34 -0.98 16.68 -2 16 C-2.1875 12.875 -2.1875 12.875 -2 10 C-1.67 10 -1.34 10 -1 10 C-0.67 6.7 -0.34 3.4 0 0 Z " fill="#377DDA" transform="translate(99,96)"/>
<path d="M0 0 C0.33 0.66 0.66 1.32 1 2 C1.66 2.33 2.32 2.66 3 3 C2.01 4.485 2.01 4.485 1 6 C-1.62697064 6.22137393 -4.00893964 6.28162025 -6.625 6.1875 C-7.33140625 6.17396484 -8.0378125 6.16042969 -8.765625 6.14648438 C-10.51074128 6.1111104 -12.25546608 6.05730221 -14 6 C-14 5.67 -14 5.34 -14 5 C-13.15695313 4.97421875 -12.31390625 4.9484375 -11.4453125 4.921875 C-10.34960938 4.86515625 -9.25390625 4.8084375 -8.125 4.75 C-7.03445312 4.70359375 -5.94390625 4.6571875 -4.8203125 4.609375 C-1.8667935 4.31153872 -1.8667935 4.31153872 -0.6171875 1.953125 C-0.41351563 1.30859375 -0.20984375 0.6640625 0 0 Z " fill="#1863D4" transform="translate(137,96)"/>
<path d="M0 0 C2.32590854 3.63423209 2.16265833 6.77088331 2 11 C1.01 11.495 1.01 11.495 0 12 C-0.66 9.03 -1.32 6.06 -2 3 C-1.34 3 -0.68 3 0 3 C0 2.01 0 1.02 0 0 Z " fill="#DDE8EB" transform="translate(166,140)"/>
<path d="M0 0 C-0.33 0.66 -0.66 1.32 -1 2 C-5.54093172 3.41904116 -10.2943099 3.09226843 -15 3 C-15 2.67 -15 2.34 -15 2 C-9.75614911 0.2520497 -5.52677733 -0.19392201 0 0 Z " fill="#EAF3F0" transform="translate(116,200)"/>
<path d="M0 0 C0.66 0 1.32 0 2 0 C1.67 1.65 1.34 3.3 1 5 C0.34 5 -0.32 5 -1 5 C-1 5.99 -1 6.98 -1 8 C-2.98 8.99 -2.98 8.99 -5 10 C-3.66749209 6.4124787 -2.169283 3.1635377 0 0 Z " fill="#E8F0F0" transform="translate(100,112)"/>
<path d="M0 0 C-5.875 5 -5.875 5 -7 5 C-7 3.35 -7 1.7 -7 0 C-3.86650268 -1.04449911 -3.01031744 -0.93423645 0 0 Z " fill="#015FF4" transform="translate(110,129)"/>
<path d="M0 0 C-1.75 2.0625 -1.75 2.0625 -4 4 C-6.25 3.75 -6.25 3.75 -8 3 C-7.67 2.01 -7.34 1.02 -7 0 C-3.86650268 -1.04449911 -3.01031744 -0.93423645 0 0 Z " fill="#1A76E6" transform="translate(92,68)"/>
<path d="M0 0 C0.66 0 1.32 0 2 0 C1.67 3.63 1.34 7.26 1 11 C-0.64328732 7.71342537 -1.62413022 5.5707629 -2 2 C-1.34 1.34 -0.68 0.68 0 0 Z " fill="#2072DB" transform="translate(42,102)"/>
<path d="M0 0 C-4.95 2.475 -4.95 2.475 -10 5 C-9.67 3.35 -9.34 1.7 -9 0 C-3.375 -1.125 -3.375 -1.125 0 0 Z " fill="#196FDB" transform="translate(75,60)"/>
<path d="M0 0 C2.31 0.33 4.62 0.66 7 1 C6.34 2.32 5.68 3.64 5 5 C3.02 4.01 1.04 3.02 -1 2 C-0.67 1.34 -0.34 0.68 0 0 Z " fill="#EFF5F1" transform="translate(181,71)"/>
<path d="M0 0 C3.25696479 0.41755959 4.63443291 0.63443291 7 3 C5.02 3.33 3.04 3.66 1 4 C0.34 3.01 -0.32 2.02 -1 1 C-0.67 0.67 -0.34 0.34 0 0 Z " fill="#F1F6F3" transform="translate(180,60)"/>
<path d="M0 0 C4.29 0.33 8.58 0.66 13 1 C13 1.33 13 1.66 13 2 C7.06 2.495 7.06 2.495 1 3 C0.67 2.01 0.34 1.02 0 0 Z " fill="#024FE9" transform="translate(93,188)"/>
<path d="M0 0 C0.33 1.32 0.66 2.64 1 4 C0.01 4.66 -0.98 5.32 -2 6 C-2.66 5.67 -3.32 5.34 -4 5 C-3.6875 3.0625 -3.6875 3.0625 -3 1 C-2.01 0.67 -1.02 0.34 0 0 Z " fill="#0A4BE2" transform="translate(208,173)"/>
<path d="M0 0 C2.125 0.375 2.125 0.375 4 1 C4 2.32 4 3.64 4 5 C2.02 4.01 0.04 3.02 -2 2 C-1.34 1.34 -0.68 0.68 0 0 Z " fill="#E8F0EE" transform="translate(151,90)"/>
<path d="M0 0 C2 1.625 2 1.625 4 4 C4.25 7.25 4.25 7.25 4 10 C1.2027092 7.93243723 0.97307727 6.85559629 0.3125 3.3125 C0.209375 2.219375 0.10625 1.12625 0 0 Z " fill="#1053D8" transform="translate(191,82)"/>
<path d="M0 0 C2.97 0.99 5.94 1.98 9 3 C5.52674819 4.1577506 2.63932552 4.06866652 -1 4 C-0.67 2.68 -0.34 1.36 0 0 Z " fill="#155FD6" transform="translate(169,68)"/>
<path d="M0 0 C2.64 0 5.28 0 8 0 C8.33 1.32 8.66 2.64 9 4 C6.03 3.01 3.06 2.02 0 1 C0 0.67 0 0.34 0 0 Z " fill="#1A5DDA" transform="translate(180,59)"/>
<path d="M0 0 C0.66 0 1.32 0 2 0 C2 2.64 2 5.28 2 8 C1.67 7.01 1.34 6.02 1 5 C0.34 5 -0.32 5 -1 5 C-0.67 3.35 -0.34 1.7 0 0 Z " fill="#1476EB" transform="translate(44,88)"/>
</svg>
